<svg width="12" height="12" viewBox="0 0 12 12" fill="none" xmlns="http://www.w3.org/2000/svg">
<path d="M5.65495 11.0479C4.91828 11.0479 4.21411 10.907 3.54245 10.6254C2.89967 10.3509 2.32731 9.96271 1.82536 9.46077C1.32342 8.95882 0.935226 8.38646 0.660781 7.74369C0.379115 7.07202 0.238281 6.36785 0.238281 5.63119C0.238281 4.89452 0.379115 4.19035 0.660781 3.51868C0.935226 2.87591 1.32342 2.30355 1.82536 1.8016C2.32731 1.29966 2.89967 0.911463 3.54245 0.637018C4.21411 0.355351 4.91828 0.214519 5.65495 0.214519C6.39161 0.214519 7.09578 0.355351 7.76745 0.637018C8.41023 0.911463 8.98259 1.29966 9.48453 1.8016C9.98648 2.30355 10.3747 2.87591 10.6491 3.51868C10.9308 4.19035 11.0716 4.89452 11.0716 5.63119C11.0716 6.36785 10.9308 7.07202 10.6491 7.74369C10.3747 8.38646 9.98648 8.95882 9.48453 9.46077C8.98259 9.96271 8.41023 10.3509 7.76745 10.6254C7.09578 10.907 6.39161 11.0479 5.65495 11.0479ZM5.65495 9.96452C6.44217 9.96452 7.17161 9.76591 7.84328 9.36868C8.49328 8.98591 9.00967 8.46952 9.39245 7.81952C9.78967 7.14785 9.98828 6.41841 9.98828 5.63119C9.98828 4.84396 9.78967 4.11452 9.39245 3.44285C9.00967 2.79285 8.49328 2.27646 7.84328 1.89369C7.17161 1.49646 6.44217 1.29785 5.65495 1.29785C4.86773 1.29785 4.13828 1.49646 3.46661 1.89369C2.81661 2.27646 2.30023 2.79285 1.91745 3.44285C1.52023 4.11452 1.32161 4.84396 1.32161 5.63119C1.32161 6.41841 1.52023 7.14785 1.91745 7.81952C2.30023 8.46952 2.81661 8.98591 3.46661 9.36868C4.13828 9.76591 4.86773 9.96452 5.65495 9.96452ZM5.11328 7.79785L2.81661 5.50118L3.58578 4.73202L5.11328 6.27035L8.17911 3.20452L8.94828 3.96285L5.11328 7.79785Z" fill="#212529"/>
</svg>
