<svg width="20" height="19" viewBox="0 0 20 19" fill="none" xmlns="http://www.w3.org/2000/svg">
<path d="M9.99967 0.333496C15.0413 0.333496 19.1663 4.4585 19.1663 9.50016C19.1663 14.5418 15.0413 18.6668 9.99967 18.6668C4.95801 18.6668 0.833008 14.5418 0.833008 9.50016C0.833008 4.4585 4.95801 0.333496 9.99967 0.333496ZM9.99967 2.16683C8.25801 2.16683 6.69967 2.71683 5.50801 3.72516L15.7747 13.9918C16.6913 12.7085 17.333 11.1502 17.333 9.50016C17.333 5.46683 14.033 2.16683 9.99967 2.16683ZM14.4913 15.2752L4.22467 5.0085C3.21634 6.20016 2.66634 7.7585 2.66634 9.50016C2.66634 13.5335 5.96634 16.8335 9.99967 16.8335C11.7413 16.8335 13.2997 16.2835 14.4913 15.2752Z" fill="#F06548"/>
</svg>
