<svg width="12" height="12" viewBox="0 0 12 12" fill="none" xmlns="http://www.w3.org/2000/svg">
<path d="M6.16055 11.0479C5.42445 11.0479 4.72082 10.907 4.04967 10.6254C3.40739 10.3509 2.83547 9.96271 2.33391 9.46077C1.83235 8.95882 1.44446 8.38646 1.17022 7.74369C0.888772 7.07202 0.748047 6.36785 0.748047 5.63119C0.748047 4.89452 0.888772 4.19035 1.17022 3.51868C1.44446 2.87591 1.83235 2.30355 2.33391 1.8016C2.83547 1.29966 3.40739 0.911463 4.04967 0.637018C4.72082 0.355351 5.42445 0.214519 6.16055 0.214519C6.89665 0.214519 7.60028 0.355351 8.27143 0.637018C8.91371 0.911463 9.48563 1.29966 9.98719 1.8016C10.4887 2.30355 10.8766 2.87591 11.1509 3.51868C11.4323 4.19035 11.5731 4.89452 11.5731 5.63119C11.5731 6.36785 11.4323 7.07202 11.1509 7.74369C10.8766 8.38646 10.4887 8.95882 9.98719 9.46077C9.48563 9.96271 8.91371 10.3509 8.27143 10.6254C7.60028 10.907 6.89665 11.0479 6.16055 11.0479ZM6.16055 9.96452C6.94717 9.96452 7.67605 9.76591 8.3472 9.36868C8.9967 8.98591 9.51269 8.46952 9.89518 7.81952C10.2921 7.14785 10.4906 6.41841 10.4906 5.63119C10.4906 4.84396 10.2921 4.11452 9.89518 3.44285C9.51269 2.79285 8.9967 2.27646 8.3472 1.89369C7.67605 1.49646 6.94717 1.29785 6.16055 1.29785C5.37393 1.29785 4.64505 1.49646 3.9739 1.89369C3.3244 2.27646 2.80841 2.79285 2.42592 3.44285C2.02901 4.11452 1.83055 4.84396 1.83055 5.63119C1.83055 6.41841 2.02901 7.14785 2.42592 7.81952C2.80841 8.46952 3.3244 8.98591 3.9739 9.36868C4.64505 9.76591 5.37393 9.96452 6.16055 9.96452ZM6.16055 4.86202L7.68688 3.33452L8.45545 4.10368L6.92912 5.63119L8.45545 7.15868L7.68688 7.92785L6.16055 6.40035L4.63422 7.92785L3.86565 7.15868L5.39197 5.63119L3.86565 4.10368L4.63422 3.33452L6.16055 4.86202Z" fill="#212529"/>
</svg>
