<svg width="34" height="34" viewBox="0 0 34 34" fill="none" xmlns="http://www.w3.org/2000/svg">
<rect x="0.899902" y="0.199951" width="33" height="33" rx="16.5" fill="#F2F2F2"/>
<path d="M22.3999 19.45H20.8999V20.95H22.3999M22.3999 16.45H20.8999V17.95H22.3999M23.8999 22.45H17.8999V20.95H19.3999V19.45H17.8999V17.95H19.3999V16.45H17.8999V14.95H23.8999M16.3999 13.45H14.8999V11.95H16.3999M16.3999 16.45H14.8999V14.95H16.3999M16.3999 19.45H14.8999V17.95H16.3999M16.3999 22.45H14.8999V20.95H16.3999M13.3999 13.45H11.8999V11.95H13.3999M13.3999 16.45H11.8999V14.95H13.3999M13.3999 19.45H11.8999V17.95H13.3999M13.3999 22.45H11.8999V20.95H13.3999M17.8999 13.45V10.45H10.3999V23.95H25.3999V13.45H17.8999Z" fill="#212529"/>
</svg>
