<svg width="33" height="34" viewBox="0 0 33 34" fill="none" xmlns="http://www.w3.org/2000/svg">
<rect x="0.5" y="0.699951" width="32" height="32" rx="16" fill="white"/>
<rect x="0.5" y="0.699951" width="32" height="32" rx="16" stroke="#CD0F45"/>
<path d="M16.5 19.4707C15.7651 19.4707 15.0604 19.1788 14.5407 18.6591C14.0211 18.1395 13.7292 17.4347 13.7292 16.6999C13.7292 15.965 14.0211 15.2602 14.5407 14.7406C15.0604 14.221 15.7651 13.929 16.5 13.929C17.2349 13.929 17.9396 14.221 18.4593 14.7406C18.9789 15.2602 19.2708 15.965 19.2708 16.6999C19.2708 17.4347 18.9789 18.1395 18.4593 18.6591C17.9396 19.1788 17.2349 19.4707 16.5 19.4707ZM22.3821 17.4678C22.4137 17.2145 22.4375 16.9611 22.4375 16.6999C22.4375 16.4386 22.4137 16.1774 22.3821 15.9082L24.0525 14.6178C24.2029 14.499 24.2425 14.2853 24.1475 14.1111L22.5642 11.372C22.4692 11.1978 22.2554 11.1265 22.0812 11.1978L20.11 11.9895C19.6983 11.6807 19.2708 11.4115 18.7721 11.2136L18.4792 9.1157C18.4475 8.9257 18.2812 8.7832 18.0833 8.7832H14.9167C14.7187 8.7832 14.5525 8.9257 14.5208 9.1157L14.2279 11.2136C13.7292 11.4115 13.3017 11.6807 12.89 11.9895L10.9187 11.1978C10.7446 11.1265 10.5308 11.1978 10.4358 11.372L8.85249 14.1111C8.74958 14.2853 8.79708 14.499 8.9475 14.6178L10.6179 15.9082C10.5862 16.1774 10.5625 16.4386 10.5625 16.6999C10.5625 16.9611 10.5862 17.2145 10.6179 17.4678L8.9475 18.782C8.79708 18.9007 8.74958 19.1145 8.85249 19.2886L10.4358 22.0278C10.5308 22.202 10.7446 22.2653 10.9187 22.202L12.89 21.4024C13.3017 21.719 13.7292 21.9882 14.2279 22.1861L14.5208 24.284C14.5525 24.474 14.7187 24.6165 14.9167 24.6165H18.0833C18.2812 24.6165 18.4475 24.474 18.4792 24.284L18.7721 22.1861C19.2708 21.9803 19.6983 21.719 20.11 21.4024L22.0812 22.202C22.2554 22.2653 22.4692 22.202 22.5642 22.0278L24.1475 19.2886C24.2425 19.1145 24.2029 18.9007 24.0525 18.782L22.3821 17.4678Z" fill="#CD0F45"/>
</svg>
