<svg width="13" height="14" viewBox="0 0 13 14" fill="none" xmlns="http://www.w3.org/2000/svg">
<path d="M6.67773 0.75C5.85697 0.75 5.04425 0.911661 4.28596 1.22575C3.52768 1.53984 2.83868 2.00022 2.25832 2.58058C1.08621 3.75269 0.427734 5.3424 0.427734 7C0.427734 8.6576 1.08621 10.2473 2.25832 11.4194C2.83868 11.9998 3.52768 12.4602 4.28596 12.7742C5.04425 13.0883 5.85697 13.25 6.67773 13.25C8.33534 13.25 9.92505 12.5915 11.0972 11.4194C12.2693 10.2473 12.9277 8.6576 12.9277 7C12.9277 6.17924 12.7661 5.36651 12.452 4.60823C12.1379 3.84994 11.6775 3.16095 11.0972 2.58058C10.5168 2.00022 9.82779 1.53984 9.06951 1.22575C8.31122 0.911661 7.4985 0.75 6.67773 0.75Z" fill="#0AB39C"/>
</svg>
