<svg width="34" height="34" viewBox="0 0 34 34" fill="none" xmlns="http://www.w3.org/2000/svg">
<rect x="0.900024" y="0.199951" width="33" height="33" rx="16.5" fill="#F2F2F2"/>
<path d="M17.4001 16.304C16.8752 16.304 16.3717 16.0955 16.0006 15.7244C15.6294 15.3532 15.4209 14.8498 15.4209 14.3249C15.4209 13.8 15.6294 13.2966 16.0006 12.9254C16.3717 12.5542 16.8752 12.3457 17.4001 12.3457C17.925 12.3457 18.4284 12.5542 18.7995 12.9254C19.1707 13.2966 19.3792 13.8 19.3792 14.3249C19.3792 14.5848 19.328 14.8421 19.2286 15.0823C19.1291 15.3224 18.9833 15.5406 18.7995 15.7244C18.6158 15.9081 18.3976 16.0539 18.1575 16.1534C17.9173 16.2528 17.66 16.304 17.4001 16.304ZM17.4001 8.7832C15.9303 8.7832 14.5208 9.36706 13.4815 10.4063C12.4423 11.4456 11.8584 12.8551 11.8584 14.3249C11.8584 18.4811 17.4001 24.6165 17.4001 24.6165C17.4001 24.6165 22.9417 18.4811 22.9417 14.3249C22.9417 12.8551 22.3579 11.4456 21.3186 10.4063C20.2794 9.36706 18.8698 8.7832 17.4001 8.7832Z" fill="#212529"/>
</svg>
