<svg width="16" height="14" viewBox="0 0 16 14" fill="none" xmlns="http://www.w3.org/2000/svg">
<path d="M14.0211 0.75C14.7449 0.75 15.3447 1.25625 15.3998 1.90625V2V9.5C15.3998 10.1562 14.8346 10.7 14.1245 10.75H14.0211H9.19577V12H10.5744V13.25H5.05974V12H6.43842V10.75H1.61305C0.889246 10.75 0.289522 10.2375 0.234375 9.59375V9.5V2C0.234375 1.3375 0.792739 0.8 1.50965 0.75H1.61305H14.0211ZM14.0211 2H1.61305V9.5H14.0211V2ZM7.8171 6.375C9.34053 6.375 10.5744 6.9375 10.5744 7.625V8.25H5.05974V7.625C5.05974 6.9375 6.29366 6.375 7.8171 6.375ZM7.8171 3.25C8.58226 3.25 9.19577 3.8125 9.19577 4.5C9.19577 5.1875 8.58226 5.75 7.8171 5.75C7.05193 5.75 6.43842 5.19375 6.43842 4.5C6.43842 3.80625 7.05882 3.25 7.8171 3.25Z" fill="#0AB39C"/>
</svg>
