<svg width="34" height="34" viewBox="0 0 34 34" fill="none" xmlns="http://www.w3.org/2000/svg">
<rect x="0.900024" y="0.199951" width="33" height="33" rx="16.5" fill="#F2F2F2"/>
<path d="M21.5333 18.8667C21.6 18.3167 21.65 17.7667 21.65 17.2C21.65 16.6334 21.6 16.0834 21.5333 15.5334H24.35C24.4833 16.0667 24.5667 16.625 24.5667 17.2C24.5667 17.775 24.4833 18.3334 24.35 18.8667M20.0583 23.5C20.5583 22.575 20.9417 21.575 21.2083 20.5334H23.6666C22.8667 21.9084 21.5917 22.975 20.0583 23.5ZM19.85 18.8667H15.95C15.8667 18.3167 15.8167 17.7667 15.8167 17.2C15.8167 16.6334 15.8667 16.075 15.95 15.5334H19.85C19.925 16.075 19.9833 16.6334 19.9833 17.2C19.9833 17.7667 19.925 18.3167 19.85 18.8667ZM17.9 23.8334C17.2083 22.8334 16.65 21.725 16.3083 20.5334H19.4916C19.15 21.725 18.5917 22.8334 17.9 23.8334ZM14.5667 13.8667H12.1333C12.925 12.4834 14.2083 11.4167 15.7333 10.9C15.2333 11.825 14.8583 12.825 14.5667 13.8667ZM12.1333 20.5334H14.5667C14.8583 21.575 15.2333 22.575 15.7333 23.5C14.2083 22.975 12.925 21.9084 12.1333 20.5334ZM11.45 18.8667C11.3167 18.3334 11.2333 17.775 11.2333 17.2C11.2333 16.625 11.3167 16.0667 11.45 15.5334H14.2667C14.2 16.0834 14.15 16.6334 14.15 17.2C14.15 17.7667 14.2 18.3167 14.2667 18.8667M17.9 10.5584C18.5917 11.5584 19.15 12.675 19.4916 13.8667H16.3083C16.65 12.675 17.2083 11.5584 17.9 10.5584ZM23.6666 13.8667H21.2083C20.9417 12.825 20.5583 11.825 20.0583 10.9C21.5917 11.425 22.8667 12.4834 23.6666 13.8667ZM17.9 8.8667C13.2917 8.8667 9.56665 12.6167 9.56665 17.2C9.56665 19.4102 10.4446 21.5298 12.0074 23.0926C12.7812 23.8664 13.6999 24.4802 14.711 24.899C15.722 25.3178 16.8056 25.5334 17.9 25.5334C20.1101 25.5334 22.2297 24.6554 23.7925 23.0926C25.3553 21.5298 26.2333 19.4102 26.2333 17.2C26.2333 16.1057 26.0178 15.022 25.599 14.011C25.1802 13 24.5664 12.0813 23.7925 11.3075C23.0187 10.5337 22.1001 9.91983 21.089 9.50104C20.078 9.08225 18.9943 8.8667 17.9 8.8667Z" fill="#212529"/>
</svg>
