<svg width="20" height="20" viewBox="0 0 20 20" fill="none" xmlns="http://www.w3.org/2000/svg">
<path d="M9.99996 16.6667C11.7681 16.6667 13.4638 15.9644 14.714 14.7141C15.9642 13.4639 16.6666 11.7682 16.6666 10.0001C16.6666 8.23197 15.9642 6.53628 14.714 5.28604C13.4638 4.03579 11.7681 3.33341 9.99996 3.33341C8.23185 3.33341 6.53616 4.03579 5.28591 5.28604C4.03567 6.53628 3.33329 8.23197 3.33329 10.0001C3.33329 11.7682 4.03567 13.4639 5.28591 14.7141C6.53616 15.9644 8.23185 16.6667 9.99996 16.6667ZM9.99996 1.66675C11.0943 1.66675 12.1779 1.8823 13.189 2.30109C14.2 2.71987 15.1187 3.3337 15.8925 4.10752C16.6663 4.88135 17.2802 5.80001 17.699 6.81105C18.1177 7.8221 18.3333 8.90573 18.3333 10.0001C18.3333 12.2102 17.4553 14.3298 15.8925 15.8926C14.3297 17.4554 12.2101 18.3334 9.99996 18.3334C5.39163 18.3334 1.66663 14.5834 1.66663 10.0001C1.66663 7.78994 2.5446 5.67033 4.1074 4.10752C5.67021 2.54472 7.78982 1.66675 9.99996 1.66675ZM10.4166 5.83341V10.2084L14.1666 12.4334L13.5416 13.4584L9.16662 10.8334V5.83341H10.4166Z" fill="black"/>
</svg>
