<svg width="22" height="21" viewBox="0 0 22 21" fill="none" xmlns="http://www.w3.org/2000/svg">
<path d="M12.5 5.64014H11V10.6401L15.28 13.1801L16 11.9701L12.5 9.89014V5.64014ZM12 0.640137C9.61305 0.640137 7.32387 1.58835 5.63604 3.27618C3.94821 4.964 3 7.25319 3 9.64014H0L3.96 13.6701L8 9.64014H5C5 7.78362 5.7375 6.00314 7.05025 4.69039C8.36301 3.37763 10.1435 2.64014 12 2.64014C13.8565 2.64014 15.637 3.37763 16.9497 4.69039C18.2625 6.00314 19 7.78362 19 9.64014C19 11.4967 18.2625 13.2771 16.9497 14.5899C15.637 15.9026 13.8565 16.6401 12 16.6401C10.07 16.6401 8.32 15.8501 7.06 14.5801L5.64 16.0001C7.27 17.6401 9.5 18.6401 12 18.6401C14.3869 18.6401 16.6761 17.6919 18.364 16.0041C20.0518 14.3163 21 12.0271 21 9.64014C21 7.25319 20.0518 4.964 18.364 3.27618C16.6761 1.58835 14.3869 0.640137 12 0.640137Z" fill="#CD0F45"/>
</svg>
