<svg width="22" height="22" viewBox="0 0 22 22" fill="none" xmlns="http://www.w3.org/2000/svg">
<path d="M1.83337 2.75V9.16667L10.0834 11L1.83337 12.8333V19.25L8.49754 16.3992C8.87506 17.7455 9.68199 18.9316 10.7956 19.7771C11.9092 20.6227 13.2685 21.0813 14.6667 21.0833C16.3685 21.0833 18.0006 20.4073 19.204 19.2039C20.4073 18.0006 21.0834 16.3685 21.0834 14.6667C21.0834 12.9649 20.4073 11.3328 19.204 10.1294C18.0006 8.92604 16.3685 8.25 14.6667 8.25L1.83337 2.75ZM14.6667 10.0833C15.8823 10.0833 17.0481 10.5662 17.9076 11.4258C18.7672 12.2853 19.25 13.4511 19.25 14.6667C19.25 15.8822 18.7672 17.048 17.9076 17.9076C17.0481 18.7671 15.8823 19.25 14.6667 19.25C13.4511 19.25 12.2853 18.7671 11.4258 17.9076C10.5663 17.048 10.0834 15.8822 10.0834 14.6667C10.0834 13.4511 10.5663 12.2853 11.4258 11.4258C12.2853 10.5662 13.4511 10.0833 14.6667 10.0833ZM13.75 11.4583V15.125L16.5 16.9583L17.1875 15.8125L15.125 14.4375V11.4583H13.75Z" fill="white"/>
</svg>
